<svg id="Capa_1" enable-background="new 0 0 512 512" width="50px" height="39px" viewBox="0 0 512 512" width="512" xmlns="http://www.w3.org/2000/svg"><g><path d="m482 430.985h-452c-16.569 0-30 13.431-30 30 0 16.569 13.431 30 30 30h452c16.569 0 30-13.431 30-30 0-16.569-13.431-30-30-30z"/><path d="m371 285.985c0-8.271-6.729-15-15-15-6.26 0-11.898 4.028-14.029 10.024-2.127 5.98-7.787 9.976-14.134 9.976h-143.674c-6.347 0-12.007-3.995-14.133-9.976-2.132-5.996-7.77-10.024-14.03-10.024-8.271 0-15 6.729-15 15 0 4.626 2.138 7.97 3.931 9.961 5.139 5.706 5.139 14.372 0 20.078-1.793 1.991-3.931 5.335-3.931 9.961 0 8.271 6.729 15 15 15 6.26 0 11.898-4.028 14.03-10.024 2.126-5.98 7.786-9.976 14.133-9.976h143.674c6.347 0 12.007 3.995 14.134 9.976 2.131 5.996 7.77 10.024 14.029 10.024 8.271 0 15-6.729 15-15 0-4.626-2.138-7.97-3.931-9.961-5.141-5.706-5.141-14.372 0-20.078 1.793-1.992 3.931-5.335 3.931-9.961z"/><path d="m464.666 224.627c-.702-7.726-7.18-13.642-14.938-13.642h-387.455c-7.758 0-14.236 5.916-14.938 13.642l-16.033 176.358h449.397zm-63.666 101.358c0 24.813-20.187 45-45 45-15.151 0-29.066-7.721-37.285-20h-125.43c-8.218 12.279-22.133 20-37.285 20-24.813 0-45-20.187-45-45 0-6.979 1.653-13.812 4.768-20-3.114-6.188-4.768-13.021-4.768-20 0-24.813 20.187-45 45-45 15.151 0 29.067 7.721 37.285 20h125.43c8.219-12.279 22.134-20 37.285-20 24.813 0 45 20.187 45 45 0 6.98-1.653 13.812-4.768 20 3.115 6.187 4.768 13.019 4.768 20z"/><path d="m379.547 122.21c-2.6-12.105-8.622-23.226-17.585-32.188-11.554-11.553-26.791-18.158-42.726-18.925-2.694-11.69-8.588-22.388-17.274-31.074-25.344-25.344-66.58-25.343-91.923 0-8.687 8.687-14.581 19.384-17.275 31.074-15.934.768-31.173 7.374-42.725 18.926-8.963 8.962-14.986 20.082-17.585 32.188-30.029 5.5-53.847 28.95-59.928 58.774h366.949c-6.081-29.825-29.9-53.275-59.928-58.775zm-173.547 23.775c-8.284 0-15-6.716-15-15s6.716-15 15-15 15 6.716 15 15-6.716 15-15 15zm50-40c-8.284 0-15-6.716-15-15s6.716-15 15-15 15 6.716 15 15-6.716 15-15 15zm50 40c-8.284 0-15-6.716-15-15s6.716-15 15-15 15 6.716 15 15-6.716 15-15 15z"/></g></svg>